<?xml version="1.0" encoding="utf-8"?>
<!-- Generator: Adobe Illustrator 24.0.1, SVG Export Plug-In . SVG Version: 6.00 Build 0)  -->
<svg version="1.1" id="레이어_1" xmlns="http://www.w3.org/2000/svg" xmlns:xlink="http://www.w3.org/1999/xlink" x="0px"
	 y="0px" viewBox="0 0 24.32 40" style="enable-background:new 0 0 24.32 40;" xml:space="preserve">
<style type="text/css">
	.st0{clip-path:url(#SVGID_2_);fill:#040000;}
	.st1{clip-path:url(#SVGID_4_);fill:#040000;}
	.st2{clip-path:url(#SVGID_6_);fill:#FFFFFF;}
	.st3{clip-path:url(#SVGID_8_);fill:#201E1E;}
	.st4{clip-path:url(#SVGID_10_);fill:#201E1E;}
	.st5{clip-path:url(#SVGID_12_);fill:#201E1E;}
	.st6{fill:#201E1E;}
	.st7{clip-path:url(#SVGID_14_);fill:#201E1E;}
</style>
<g>
	<g>
		<g>
			<g>
				<defs>
					<rect id="SVGID_1_" width="24.32" height="40"/>
				</defs>
				<clipPath id="SVGID_2_">
					<use xlink:href="#SVGID_1_"  style="overflow:visible;"/>
				</clipPath>
				<path class="st0" d="M24.16,2.16h-0.53c-0.53,0-0.96,0.42-1.14,2.3L19.26,39.8h-4.04l-2.85-24.27L10.2,39.8H6.16L1.78,2.16H0.17
					V0.21h6.69l2.86,24.44l1.62-17.96l-0.73-6.48h6.93v1.95h-1.36l2.62,22.58l1.99-20.43c0.14-1.32-0.16-2.15-0.91-2.15h-0.67V0.21
					h4.94V2.16L24.16,2.16z M24.32,2.37V0h-5.28v2.37h0.76c0.72,0,0.95,0.65,0.81,2.17l-1.83,18.57L16.38,2.37h1.33V0h-7.13h-0.18
					l0,0l0.75,6.69L9.7,22.99L7.01,0H0v2.37h1.64L6,40h4.34l2.06-22.8L15.05,40h4.34l3.25-35.35c0.19-1.92,0.55-2.28,0.99-2.28
					H24.32L24.32,2.37z"/>
			</g>
		</g>
		<g>
			<g>
				<defs>
					<rect id="SVGID_3_" width="24.32" height="40"/>
				</defs>
				<clipPath id="SVGID_4_">
					<use xlink:href="#SVGID_3_"  style="overflow:visible;"/>
				</clipPath>
				<path class="st1" d="M19.71,0.8v0.76h0.21c1.12,0,1.51,1.39,1.37,2.8l-2.46,25.15L15.59,1.56h1.45V0.8h-5.87l0.66,5.8
					L9.77,29.51L6.45,0.8H0.69v0.76h1.51l4.39,37.63h3.15l2.58-28.48l3.33,28.48h3.16l3.2-34.92c0.18-1.93,0.82-2.71,1.55-2.71h0.11
					V0.8H19.71z"/>
			</g>
		</g>
		<g>
			<g>
				<defs>
					<rect id="SVGID_5_" width="24.32" height="40"/>
				</defs>
				<clipPath id="SVGID_6_">
					<use xlink:href="#SVGID_5_"  style="overflow:visible;"/>
				</clipPath>
				<path class="st2" d="M23.66,1.56h-0.11c-0.72,0-1.37,0.78-1.55,2.71l-3.2,34.92h-3.16l-3.33-28.48L9.74,39.19H6.59L2.21,1.56
					H0.69V0.8h5.76l3.32,28.71L11.83,6.6l-0.66-5.8h5.87v0.76h-1.45l3.23,27.95l2.46-25.15c0.14-1.41-0.25-2.8-1.37-2.8h-0.21V0.8
					h3.95L23.66,1.56L23.66,1.56z M24.16,2.16V0.21h-4.95v1.95h0.67c0.76,0,1.05,0.83,0.91,2.15L18.8,24.74L16.19,2.16h1.36V0.21
					h-6.93l0.73,6.48L9.72,24.65L6.86,0.21H0.17v1.95h1.61L6.17,39.8h4.04l2.17-24.27l2.85,24.27h4.03L22.5,4.46
					c0.17-1.88,0.61-2.3,1.14-2.3L24.16,2.16L24.16,2.16z"/>
			</g>
		</g>
	</g>
	<g>
		<g>
			<g>
				<defs>
					<rect id="SVGID_7_" x="0.04" y="3.08" width="1.3" height="6.57"/>
				</defs>
				<clipPath id="SVGID_8_">
					<use xlink:href="#SVGID_7_"  style="overflow:visible;"/>
				</clipPath>
				<path class="st3" d="M1.32,8.83L0.78,9.12l0.16,0.14h0.38v0.39H0.06V9.26h0.15c0.11,0,0.22,0,0.31,0.01
					C0.44,9.21,0.29,9.09,0.19,9L0.06,8.89V8.42l0.45,0.42l0.82-0.46V8.83z"/>
			</g>
		</g>
		<g>
			<g>
				<defs>
					<rect id="SVGID_9_" x="0.04" y="3.08" width="1.3" height="6.57"/>
				</defs>
				<clipPath id="SVGID_10_">
					<use xlink:href="#SVGID_9_"  style="overflow:visible;"/>
				</clipPath>
				<path class="st4" d="M1.34,7.76c0,0.38-0.23,0.64-0.65,0.64S0.04,8.13,0.04,7.76s0.23-0.64,0.65-0.64S1.34,7.39,1.34,7.76
					 M0.34,7.76C0.34,7.91,0.46,8,0.69,8s0.35-0.09,0.35-0.25c0-0.15-0.12-0.24-0.34-0.24S0.34,7.61,0.34,7.76"/>
			</g>
		</g>
	</g>
	<g>
		<g>
			<g>
				<defs>
					<rect id="SVGID_11_" width="24.32" height="40"/>
				</defs>
				<clipPath id="SVGID_12_">
					<use xlink:href="#SVGID_11_"  style="overflow:visible;"/>
				</clipPath>
				<path class="st5" d="M1.32,6.21L0.9,6.44v0.15h0.42v0.38H0.06V6.35c0-0.33,0.11-0.54,0.41-0.54c0.19,0,0.31,0.1,0.37,0.25
					l0.48-0.28L1.32,6.21L1.32,6.21z M0.34,6.36v0.23h0.27V6.37c0-0.13-0.05-0.17-0.14-0.17C0.4,6.19,0.34,6.24,0.34,6.36"/>
			</g>
		</g>
	</g>
	<polygon class="st6" points="1.03,4.56 1.03,5.25 0.81,5.25 0.81,4.84 0.52,4.84 0.52,5.25 0.35,5.25 0.35,4.57 0.06,4.57 
		0.06,5.63 1.32,5.63 1.32,4.56 	"/>
	<g>
		<g>
			<g>
				<defs>
					<rect id="SVGID_13_" x="0.04" y="3.08" width="1.3" height="6.57"/>
				</defs>
				<clipPath id="SVGID_14_">
					<use xlink:href="#SVGID_13_"  style="overflow:visible;"/>
				</clipPath>
				<path class="st7" d="M1.32,3.5L1.1,3.57v0.42l0.22,0.07v0.41l-1.26-0.5V3.59l1.26-0.5V3.5z M0.74,3.69
					C0.58,3.74,0.51,3.76,0.42,3.78C0.51,3.8,0.58,3.82,0.74,3.87l0.08,0.03V3.66L0.74,3.69z"/>
			</g>
		</g>
	</g>
</g>
</svg>
